<?xml version="1.0" encoding="utf-8"?>
<!-- Generator: Adobe Illustrator 23.1.0, SVG Export Plug-In . SVG Version: 6.00 Build 0)  -->
<svg version="1.1" id="图层_1" xmlns="http://www.w3.org/2000/svg" xmlns:xlink="http://www.w3.org/1999/xlink" x="0px" y="0px"
	 viewBox="0 0 307.6 308.8" style="enable-background:new 0 0 307.6 308.8;" xml:space="preserve">
<style type="text/css">
	.st0{fill:#FFFFFF;stroke:#1A214A;stroke-width:10;stroke-miterlimit:10;}
	.st1{fill:#30315B;}
	.st2{fill:#30315B;stroke:#30315B;stroke-miterlimit:10;}
	.st3{fill:#545498;stroke:#545498;stroke-miterlimit:10;}
	.st4{fill:#0A122D;}
	.st5{enable-background:new    ;}
	.st6{fill:#1C224C;}
</style>
<polygon class="st0" points="159.7,301.4 31.9,227.6 31.9,80.1 159.7,6.4 287.4,80.1 287.4,227.6 "/>
<g>
	<path class="st1" d="M192.4,141.4c0.2,0.7,2.3,0.7,3.8,0.7c1.1,0,3.4-0.1,8.5-2.4c2.4-1.1,4.1-2.1,4.4-2.2
		c4.1-2.3,8.1-5.1,11.7-8.2c7.2-6.1,12.8-13.9,16.3-22.8c1.3-3.4,2.4-7.1,3.3-10.6c1.7-8.5,1.6-17.3-0.2-25.7
		c0.1,4.6-0.1,9.3-0.7,13.9l0,0c-1,11.7-6,20.4-8.9,25.4c-2.7,4.9-6,9.3-9.9,13.3c-3.5,3.4-7.4,6.5-11.6,9
		C199.3,137.9,191.9,140.1,192.4,141.4z"/>
	<g>
		<path class="st2" d="M138.2,131.4c1.1-7.2-7.9-9.4-21.8-26.1c-10.6-12.8-19.9-23.9-24-39c-0.5-1.8-1.3-5-2.2-4.9
			c-2.3,0.1-3.7,20.9-3.5,36.5c0,8.3,0.6,16.1,1.2,27c0.5,7.1,0.9,12.9,1.2,17c-0.4,3.2-1.8,6.1-4.1,8.3c-1.6,1.3-4.3,2.8-9.5,5.9
			h-0.1c-5.1,2.8-8.4,4.6-9.1,7.6c-0.5,1.6-0.2,3.9,1,4.9c1.6,1.2,4.5,0.2,6.2-1.2c3-2.6,1.2-5.6,4.1-8.4c2.2-2.1,5.4-2.9,8.3-2.3
			c1.5,0.5,2.8,1,4.1,1.7c0.6,0.6,1.2,1.1,2.1,1.5c3.7,1.8,8.1,0.1,17.9-5.1c8.4-4.5,12.7-6.7,15.6-8.9
			C133.2,139.5,137.5,136.2,138.2,131.4z"/>
		<path class="st3" d="M158.9,74.5c3.8,10.6,8.2,21,12.2,31.5c2.8,7.4,6,14.6,9.8,21.6c4.9,9.6,7.4,13.5,11.8,14.8c3.4,1,7,0,12-2.7
			c7.3-3.9,22-11.5,30.7-29.5c4.4-9.1,6.5-19.2,6.2-29.3c0-7.1-1.2-14-3.3-20.7c3.7,5,6.5,10.6,8.1,16.6c3.7,13.8,0,25.4-2.4,32.8
			c-3.2,9.6-8.1,18.7-14.5,26.5c-19,23.1-45.7,29.8-57.6,32.8c-34.6,9.3-63.9,1.1-75.6-2.8c-1.8,0.2-3.5,1.1-4.6,2.4
			c-1.2,1.7-0.5,2.9-1.6,5s-3,3.5-5.2,4c-3,0.6-7-0.6-7.8-3c-0.6-1.7,0.5-3.3,1.8-5.6c1.8-2.9,4.3-5.4,7.2-7.2
			c2.3-1.3,3.8-1.7,9.6-3.4l10.6-3.2c7-2.1,13.5-5.4,19.4-9.8c6-4.4,11.2-9.9,15.2-16.2c14.1-21,12.8-48.9,12.4-55.1
			c0.2-2.6,0.9-5.9,2-6C156.6,67.8,158.2,72.4,158.9,74.5z"/>
		<path class="st4" d="M221.3,123.4"/>
	</g>
</g>
<g class="st5">
	<path class="st6" d="M48.1,226.2v-29c0-3.6,1.1-6.5,3.3-8.8s5-3.4,8.5-3.4c4.1,0,7.3,1.9,9.5,5.7c1.4-2,2.8-3.5,4.4-4.4
		s3.5-1.3,5.7-1.3c3.6,0,6.4,1.1,8.3,3.4c1.9,2.3,2.9,5.6,2.9,9.8v28h-12V200c0-1.3-0.1-2.2-0.3-2.6c-0.2-0.4-0.6-0.6-1.3-0.6
		c-1.2,0-1.8,1-1.8,3v26.4h-12V200c0-1.3-0.1-2.1-0.3-2.6c-0.2-0.4-0.6-0.6-1.3-0.6c-1.2,0-1.8,1.1-1.8,3.2v26.2L48.1,226.2
		L48.1,226.2z"/>
	<path class="st6" d="M113.5,215.2v11.4c-0.9,0.2-1.7,0.2-2.5,0.2c-4.4,0-8.1-1.5-11.1-4.4s-4.4-6.6-4.4-10.9
		c0-4.3,1.5-7.9,4.5-10.8c3-3,6.6-4.5,10.9-4.5c4.8,0,8.5,1.4,11.2,4.2s4.1,6.6,4.1,11.4v14.4h-11v-13.6c0-1.6-0.4-2.8-1.1-3.7
		c-0.8-0.9-1.8-1.4-3.1-1.4c-1.2,0-2.2,0.4-3,1.3c-0.8,0.8-1.3,1.8-1.3,3s0.4,2.2,1.1,3c0.8,0.8,1.7,1.2,2.9,1.2
		C111.7,216,112.6,215.7,113.5,215.2z"/>
	<path class="st6" d="M158.8,226.2h-11v-16.6c0-1.7-0.7-2.5-2.1-2.5c-1.4,0-2.1,0.8-2.1,2.5v16.6h-11v-16.4c0-3.8,1.3-7.1,3.8-9.7
		c2.5-2.6,5.6-3.9,9.3-3.9c4.2,0,7.6,1.5,10.1,4.6c2,2.4,3,5.7,3,9.9V226.2z"/>
	<path class="st6" d="M175.1,186v11.3h5v11.6h-5c0,2.3,0.4,3.9,1.1,4.8c0.7,0.9,2.1,1.3,4.1,1.3v11.6c-0.6,0-1,0-1.3,0
		c-2.5,0-4.8-0.6-7.1-1.7c-2.2-1.2-4-2.7-5.3-4.7c-1.7-2.5-2.5-5.9-2.5-10.1V186H175.1z"/>
	<path class="st6" d="M201.8,215.2v11.4c-0.9,0.2-1.7,0.2-2.5,0.2c-4.4,0-8.1-1.5-11.1-4.4c-2.9-2.9-4.4-6.6-4.4-10.9
		c0-4.3,1.5-7.9,4.5-10.8c3-3,6.6-4.5,10.9-4.5c4.8,0,8.5,1.4,11.2,4.2s4.1,6.6,4.1,11.4v14.4h-11v-13.6c0-1.6-0.4-2.8-1.1-3.7
		c-0.8-0.9-1.8-1.4-3.1-1.4c-1.2,0-2.2,0.4-3,1.3c-0.8,0.8-1.3,1.8-1.3,3s0.4,2.2,1.1,3s1.7,1.2,2.9,1.2
		C200.1,216,201,215.7,201.8,215.2z"/>
	<path class="st6" d="M233.7,186v40.2h-12V186H233.7z"/>
	<path class="st6" d="M253.7,197.6v28.7h-12V186h15.6c6.8,0,12.2,1.6,16.1,4.7c4.6,3.7,6.9,8.8,6.9,15.1c0,6.1-2,11.1-5.9,14.9
		c-3.9,3.9-9,5.8-15.2,5.8c-0.7,0-1.9,0-3.6-0.1v-11.8h1.9c7,0,10.5-2.9,10.5-8.8c0-5.5-3.4-8.2-10.3-8.2L253.7,197.6L253.7,197.6z"
		/>
</g>
</svg>
